<svg viewBox="0 0 800 600" xmlns="http://www.w3.org/2000/svg" role="img" aria-label="Harmony-Verse music project cover">
  <defs>
    <linearGradient id="muBg" x1="0" y1="0" x2="1" y2="1">
      <stop offset="0" stop-color="#120420"/>
      <stop offset="1" stop-color="#1d0830"/>
    </linearGradient>
    <radialGradient id="muGlow1" cx="0.3" cy="0.25" r="0.6">
      <stop offset="0" stop-color="#a855f7" stop-opacity="0.9"/>
      <stop offset="1" stop-color="#a855f7" stop-opacity="0"/>
    </radialGradient>
    <radialGradient id="muGlow2" cx="0.78" cy="0.8" r="0.6">
      <stop offset="0" stop-color="#ec4899" stop-opacity="0.75"/>
      <stop offset="1" stop-color="#ec4899" stop-opacity="0"/>
    </radialGradient>
    <linearGradient id="muStroke" x1="0" y1="0" x2="1" y2="1">
      <stop offset="0" stop-color="#c084fc"/>
      <stop offset="1" stop-color="#f472b6"/>
    </linearGradient>
  </defs>
  <rect width="800" height="600" fill="url(#muBg)"/>
  <rect width="800" height="600" fill="url(#muGlow1)"/>
  <rect width="800" height="600" fill="url(#muGlow2)"/>
  <g fill="url(#muStroke)" opacity="0.85">
    <rect x="250" y="220" width="16" height="80" rx="8"/>
    <rect x="290" y="180" width="16" height="120" rx="8"/>
    <rect x="330" y="150" width="16" height="150" rx="8"/>
    <rect x="370" y="110" width="16" height="190" rx="8"/>
    <rect x="410" y="160" width="16" height="140" rx="8"/>
    <rect x="450" y="200" width="16" height="100" rx="8"/>
    <rect x="490" y="170" width="16" height="130" rx="8"/>
    <rect x="530" y="230" width="16" height="70" rx="8"/>
  </g>
  <g transform="translate(400 300)" fill="url(#muStroke)">
    <path d="M-18 -2 L40 -16 V52 a22 18 0 1 1 -16 -17 V-2 L-2 4 V70 a22 18 0 1 1 -16 -17 Z"/>
  </g>
  <text x="400" y="470" text-anchor="middle" font-family="Poppins, Segoe UI, sans-serif" font-size="42" font-weight="700" fill="#ffffff" letter-spacing="1">Harmony-Verse</text>
  <text x="400" y="510" text-anchor="middle" font-family="Poppins, Segoe UI, sans-serif" font-size="20" font-weight="400" fill="#e9c7ff" letter-spacing="3">EMOTION-AWARE AI MUSIC</text>
</svg>
